<?xml version="1.0" encoding="utf-8"?>
<!-- Generator: Adobe Illustrator 26.5.0, SVG Export Plug-In . SVG Version: 6.00 Build 0)  -->
<svg version="1.1" id="Layer_1" xmlns="http://www.w3.org/2000/svg" xmlns:xlink="http://www.w3.org/1999/xlink" x="0px" y="0px"
	 viewBox="0 0 1000 305.37" style="enable-background:new 0 0 1000 305.37;" xml:space="preserve">
<style type="text/css">
	.st0{fill:#BFE6F5;}
	.st1{fill:#E0F3FB;}
	.st2{fill:#FFFFFF;}
</style>
<path class="st0" d="M872.44,305.37c0.57-5.53,0.86-11.13,0.86-16.81c0-89.78-72.79-162.57-162.57-162.57
	c-4.48,0-8.91,0.19-13.29,0.54c-24.96-57.7-82.4-98.08-149.27-98.08c-48.14,0-91.39,20.93-121.16,54.19
	c-6.9-0.89-13.94-1.36-21.09-1.36c-0.47,0-0.94,0.01-1.42,0.02C376.4,32.7,323.86,0,263.68,0c-33.91,0-65.39,10.39-91.44,28.15
	C146.18,10.39,114.7,0,80.79,0C51.38,0,23.8,7.83,0,21.49v283.88H872.44z"/>
<path class="st1" d="M1000,305.37V117.8c-27.99-22.83-63.72-36.52-102.66-36.52c-21.33,0-41.7,4.12-60.37,11.59
	C810.87,37.96,754.91,0,690.07,0c-66.58,0-123.8,40.03-148.94,97.33c-21.33-10.29-45.25-16.05-70.52-16.05
	c-54.36,0-102.48,26.68-131.99,67.66c-26.83-19.54-59.86-31.08-95.6-31.08c-89.78,0-162.57,72.79-162.57,162.57
	c0,8.48,0.65,16.81,1.9,24.94H1000z"/>
<path class="st2" d="M1000,305.37V194.44c-8.23,1.89-16.23,4.39-23.94,7.47c-26.1-54.91-82.06-92.87-146.9-92.87
	c-66.58,0-123.8,40.03-148.94,97.34c-21.33-10.29-45.26-16.06-70.53-16.06c-54.36,0-102.48,26.68-131.99,67.66
	c-26.83-19.54-59.86-31.08-95.6-31.08c-52.09,0-98.46,24.51-128.21,62.62c-23.87-13.76-51.56-21.64-81.09-21.64
	c-33.91,0-65.39,10.39-91.44,28.15C57.9,280.05,30.06,270.04,0,268.2v37.17H1000z"/>
</svg>
