<?xml version="1.0" encoding="utf-8"?>
<!-- Generator: Adobe Illustrator 26.5.0, SVG Export Plug-In . SVG Version: 6.00 Build 0)  -->
<svg version="1.1" id="Layer_1" xmlns="http://www.w3.org/2000/svg" xmlns:xlink="http://www.w3.org/1999/xlink" x="0px" y="0px"
	 viewBox="0 0 1338.53 1000" style="enable-background:new 0 0 1338.53 1000;" xml:space="preserve">
<style type="text/css">
	.st0{fill:#FFFFFF;}
	.st1{opacity:0.5;fill:#FFFFFF;}
</style>
<circle class="st0" cx="990.76" cy="333.33" r="109.86"/>
<circle class="st0" cx="1108.89" cy="560.57" r="109.86"/>
<g>
	<path class="st1" d="M1290.47,423.16c26.69-19.27,44.06-50.64,44.06-86.07c0-54.9-41.7-100.06-95.16-105.54
		c0.71-3.97,1.1-8.05,1.1-12.22c0-38.02-30.82-68.85-68.85-68.85s-68.85,30.82-68.85,68.85c0,26.22,14.66,49.02,36.23,60.64
		c-10.55,16.49-16.67,36.09-16.67,57.11c0,49.47,33.86,91.03,79.67,102.78c-2.1,2.64-4.01,5.44-5.71,8.37
		c-7.8-1.83-15.94-2.8-24.3-2.8c-58.59,0-106.09,47.5-106.09,106.09c0,15.54,3.34,30.3,9.34,43.6
		c-43.71,13.12-75.56,53.65-75.56,101.63c0,12.67,2.22,24.82,6.3,36.08c-5.01,3.37-9.71,7.15-14.06,11.3
		c-9.69-2.92-19.97-4.49-30.61-4.49c-58.59,0-106.09,47.5-106.09,106.09s47.5,106.09,106.09,106.09c28.39,0,54.18-11.16,73.23-29.32
		c9.69,2.92,19.97,4.49,30.61,4.49c58.59,0,106.09-47.5,106.09-106.09c0-11.21-1.74-22.01-4.96-32.15
		c53.5-5.43,95.26-50.61,95.26-105.55c0-0.64-0.01-1.27-0.02-1.91c21.11-11.76,35.39-34.29,35.39-60.17
		c0-19.31-7.96-36.76-20.77-49.26c1.28-6.58,1.96-13.38,1.96-20.34c0-1.22-0.03-2.44-0.07-3.65c27.16-9.22,46.72-34.91,46.72-65.19
		C1324.75,457.28,1310.96,435.09,1290.47,423.16z"/>
	<circle class="st1" cx="1053.49" cy="125.28" r="68.85"/>
</g>
<g>
	<path class="st1" d="M1239.46,423.16c26.69-19.27,44.06-50.64,44.06-86.07c0-54.9-41.7-100.06-95.16-105.54
		c0.71-3.97,1.1-8.05,1.1-12.22c0-38.02-30.82-68.85-68.85-68.85s-68.85,30.82-68.85,68.85c0,26.22,14.66,49.02,36.23,60.64
		c-10.55,16.49-16.67,36.09-16.67,57.11c0,49.47,33.86,91.03,79.67,102.78c-2.1,2.64-4.01,5.44-5.71,8.37
		c-7.8-1.83-15.94-2.8-24.3-2.8c-58.59,0-106.09,47.5-106.09,106.09c0,15.54,3.34,30.3,9.34,43.6
		c-43.71,13.12-75.56,53.65-75.56,101.63c0,12.67,2.22,24.82,6.3,36.08c-5.01,3.37-9.71,7.15-14.06,11.3
		c-9.69-2.92-19.97-4.49-30.61-4.49c-58.59,0-106.09,47.5-106.09,106.09s47.5,106.09,106.09,106.09c28.39,0,54.18-11.16,73.23-29.32
		c9.69,2.92,19.97,4.49,30.61,4.49c58.59,0,106.09-47.5,106.09-106.09c0-11.21-1.74-22.01-4.96-32.15
		c53.5-5.43,95.26-50.61,95.26-105.55c0-0.64-0.01-1.27-0.02-1.91c21.11-11.76,35.39-34.29,35.39-60.17
		c0-19.31-7.96-36.76-20.77-49.26c1.28-6.58,1.96-13.38,1.96-20.34c0-1.22-0.03-2.44-0.07-3.65c27.16-9.22,46.72-34.91,46.72-65.19
		C1273.74,457.28,1259.95,435.09,1239.46,423.16z"/>
	<circle class="st1" cx="1002.48" cy="125.28" r="68.85"/>
</g>
<circle class="st0" cx="993.39" cy="729.5" r="68.85"/>
<circle class="st0" cx="914.01" cy="756.96" r="109.86"/>
<path class="st0" d="M0.21,1001.78h680.88V1000v-0.06c1.14,0.03,2.28,0.06,3.43,0.06c33.46,0,63.42-14.96,83.57-38.55
	c17.01-2.22,32.79-8.33,46.43-17.4c14.77,7.39,31.44,11.56,49.09,11.56c46.23,0,85.79-28.56,102-69c6.85,2.28,14.16,3.54,21.78,3.54
	c20.62,0,39.12-9.08,51.73-23.45c1.68,0.08,3.37,0.12,5.08,0.12c60.67,0,109.86-49.18,109.86-109.86
	c0-38.55-19.86-72.46-49.91-92.07c3.1-10.15,4.77-20.92,4.77-32.09c0-32.75-14.34-62.15-37.07-82.27
	c31.64-11.2,56.62-36.48,67.41-68.32c54.17-6.78,96.07-52.99,96.07-109c0-54.33-39.44-99.44-91.26-108.28
	c-5.75-12.5-13.77-23.74-23.54-33.18c6.92-10.74,10.96-23.52,10.96-37.25c0-38.02-30.82-68.85-68.85-68.85
	c-4.84,0-9.57,0.51-14.13,1.46c-18-36.1-55.28-60.9-98.36-60.9c-17.26,0-33.59,3.99-48.13,11.08
	c-20.06-21.62-48.72-35.16-80.54-35.16c-15.64,0-30.52,3.28-43.98,9.17C758.02,20.48,723.66,0,684.51,0c-1.15,0-2.29,0.02-3.43,0.06
	V0H574.66v0.06H0.21V1001.78z"/>
</svg>
