<?xml version="1.0" encoding="utf-8"?>
<!-- Generator: Adobe Illustrator 26.5.0, SVG Export Plug-In . SVG Version: 6.00 Build 0)  -->
<svg version="1.1" id="Layer_1" xmlns="http://www.w3.org/2000/svg" xmlns:xlink="http://www.w3.org/1999/xlink" x="0px" y="0px"
	 viewBox="0 0 1338.53 1000" style="enable-background:new 0 0 1338.53 1000;" xml:space="preserve">
<style type="text/css">
	.st0{fill:#FFFFFF;}
	.st1{opacity:0.5;fill:#FFFFFF;}
</style>
<circle class="st0" cx="347.98" cy="668.44" r="109.86"/>
<circle class="st0" cx="229.85" cy="441.21" r="109.86"/>
<g>
	<path class="st1" d="M48.27,578.61c-26.69,19.27-44.06,50.64-44.06,86.07c0,54.9,41.7,100.06,95.16,105.54
		c-0.71,3.97-1.1,8.05-1.1,12.22c0,38.02,30.82,68.85,68.85,68.85c38.02,0,68.85-30.82,68.85-68.85c0-26.22-14.66-49.02-36.23-60.64
		c10.55-16.49,16.67-36.09,16.67-57.11c0-49.47-33.86-91.03-79.67-102.78c2.1-2.64,4.01-5.44,5.71-8.37c7.8,1.83,15.94,2.8,24.3,2.8
		c58.59,0,106.09-47.5,106.09-106.09c0-15.54-3.34-30.3-9.34-43.6c43.71-13.12,75.56-53.65,75.56-101.63
		c0-12.67-2.22-24.82-6.3-36.08c5.01-3.37,9.71-7.15,14.06-11.3c9.69,2.92,19.97,4.49,30.61,4.49c58.59,0,106.09-47.5,106.09-106.09
		S436.02,49.93,377.42,49.93c-28.39,0-54.18,11.16-73.23,29.32c-9.69-2.92-19.97-4.49-30.61-4.49
		c-58.59,0-106.09,47.5-106.09,106.09c0,11.21,1.74,22.01,4.96,32.15c-53.5,5.43-95.26,50.61-95.26,105.55
		c0,0.64,0.01,1.27,0.02,1.91c-21.11,11.76-35.39,34.29-35.39,60.17c0,19.31,7.96,36.76,20.77,49.26
		c-1.28,6.58-1.96,13.38-1.96,20.34c0,1.22,0.03,2.44,0.07,3.65c-27.16,9.22-46.72,34.91-46.72,65.19
		C13.99,544.5,27.78,566.69,48.27,578.61z"/>
	<circle class="st1" cx="285.25" cy="876.49" r="68.85"/>
</g>
<g>
	<path class="st1" d="M99.28,578.61c-26.69,19.27-44.06,50.64-44.06,86.07c0,54.9,41.7,100.06,95.16,105.54
		c-0.71,3.97-1.1,8.05-1.1,12.22c0,38.02,30.82,68.85,68.85,68.85c38.02,0,68.85-30.82,68.85-68.85c0-26.22-14.66-49.02-36.23-60.64
		c10.55-16.49,16.67-36.09,16.67-57.11c0-49.47-33.86-91.03-79.67-102.78c2.1-2.64,4.01-5.44,5.71-8.37c7.8,1.83,15.94,2.8,24.3,2.8
		c58.59,0,106.09-47.5,106.09-106.09c0-15.54-3.34-30.3-9.34-43.6c43.71-13.12,75.56-53.65,75.56-101.63
		c0-12.67-2.22-24.82-6.3-36.08c5.01-3.37,9.71-7.15,14.06-11.3c9.69,2.92,19.97,4.49,30.61,4.49c58.59,0,106.09-47.5,106.09-106.09
		S487.03,49.93,428.43,49.93c-28.39,0-54.18,11.16-73.23,29.32c-9.69-2.92-19.97-4.49-30.61-4.49
		c-58.59,0-106.09,47.5-106.09,106.09c0,11.21,1.74,22.01,4.96,32.15c-53.5,5.43-95.26,50.61-95.26,105.55
		c0,0.64,0.01,1.27,0.02,1.91c-21.11,11.76-35.39,34.29-35.39,60.17c0,19.31,7.96,36.76,20.77,49.26
		c-1.28,6.58-1.96,13.38-1.96,20.34c0,1.22,0.03,2.44,0.07,3.65C84.56,463.11,65,488.8,65,519.08
		C65,544.5,78.79,566.69,99.28,578.61z"/>
	<circle class="st1" cx="336.26" cy="876.49" r="68.85"/>
</g>
<circle class="st0" cx="345.35" cy="272.28" r="68.85"/>
<circle class="st0" cx="424.73" cy="244.82" r="109.86"/>
<path class="st0" d="M1338.53,0H657.65v1.78v0.06c-1.14-0.03-2.28-0.06-3.43-0.06c-33.46,0-63.42,14.96-83.57,38.55
	c-17.01,2.22-32.79,8.33-46.43,17.4c-14.77-7.39-31.44-11.56-49.09-11.56c-46.23,0-85.79,28.56-102,69
	c-6.85-2.28-14.16-3.54-21.78-3.54c-20.62,0-39.12,9.08-51.73,23.45c-1.68-0.08-3.37-0.12-5.08-0.12
	c-60.67,0-109.86,49.18-109.86,109.86c0,38.55,19.86,72.46,49.91,92.07c-3.1,10.15-4.77,20.92-4.77,32.09
	c0,32.75,14.34,62.15,37.07,82.27c-31.64,11.2-56.62,36.48-67.41,68.32c-54.17,6.78-96.07,52.99-96.07,109
	c0,54.33,39.44,99.44,91.26,108.28c5.75,12.5,13.77,23.74,23.54,33.18c-6.92,10.74-10.96,23.52-10.96,37.25
	c0,38.02,30.82,68.85,68.85,68.85c4.84,0,9.57-0.51,14.13-1.46c18,36.1,55.28,60.9,98.36,60.9c17.26,0,33.59-3.99,48.13-11.08
	c20.06,21.62,48.72,35.16,80.54,35.16c15.64,0,30.52-3.28,43.98-9.17c19.46,30.83,53.82,51.3,92.96,51.3c1.15,0,2.29-0.02,3.43-0.06
	v0.06h106.43v-0.06h574.44V0z"/>
</svg>
