<?xml version="1.0" encoding="utf-8"?>
<!-- Generator: Adobe Illustrator 27.1.1, SVG Export Plug-In . SVG Version: 6.00 Build 0)  -->
<svg version="1.1" id="Layer_1" xmlns="http://www.w3.org/2000/svg" xmlns:xlink="http://www.w3.org/1999/xlink" x="0px" y="0px"
	 viewBox="0 0 1000 306.4" style="enable-background:new 0 0 1000 306.4;" xml:space="preserve">
<style type="text/css">
	.st0{fill:#BFE6F5;}
	.st1{fill:#E0F3FB;}
	.st2{fill:#FFFFFF;}
</style>
<path class="st0" d="M872.7,302.7c0.6-5.5,0.6-8.4,0.6-14.1c0-89.8-72.8-162.6-162.6-162.6c-4.5,0-8.9,0.2-13.3,0.5
	c-25-57.7-82.4-98.1-149.3-98.1c-48.1,0-91.4,20.9-121.2,54.2c-6.9-0.9-13.9-1.4-21.1-1.4c-0.5,0-0.9,0-1.4,0
	C376.4,32.7,323.9,0,263.7,0c-33.9,0-65.4,10.4-91.4,28.1C146.2,10.4,114.7,0,80.8,0C51.4,0,23.8,7.8,0,21.5L1.3,301L872.7,302.7z"
	/>
<path class="st1" d="M1000,305.4V117.8C972,95,936.3,81.3,897.3,81.3c-21.3,0-41.7,4.1-60.4,11.6C810.9,38,754.9,0,690.1,0
	c-66.6,0-123.8,40-148.9,97.3C519.9,87,496,81.2,470.7,81.2c-54.4,0-102.5,26.7-132,67.7c-26.8-19.5-59.9-31.1-95.6-31.1
	c-89.8,0-162.6,72.8-162.6,162.6c0,8.5,0.7,16.8,1.9,24.9H1000V305.4z"/>
<path class="st2" d="M1000,306.4v-112c-8.2,1.9-16.2,4.4-23.9,7.5C950,147,894,109,829.2,109c-66.6,0-123.8,40-148.9,97.3
	C659,196,635,190.2,609.8,190.2c-54.4,0-102.5,26.7-132,67.7c-26.8-19.5-59.9-31.1-95.6-31.1c-52.1,0-98.5,24.5-128.2,62.6
	c-23.9-13.8-51.6-21.6-81.1-21.6c-33.9,0-65.4,10.4-91.4,28.1C57.9,280,30.1,270,0,268.2v37.5L1000,306.4z"/>
<rect y="299.2" class="st2" width="1000" height="7.2"/>
</svg>
