<?xml version="1.0" encoding="UTF-8"?>
<svg id="Layer_1" data-name="Layer 1" xmlns="http://www.w3.org/2000/svg" viewBox="0 0 624.95 452.88">
  <defs>
    <style>
      .cls-1, .cls-2, .cls-3, .cls-4, .cls-5, .cls-6, .cls-7, .cls-8, .cls-9, .cls-10, .cls-11, .cls-12 {
        fill: none;
      }

      .cls-2 {
        stroke-width: 3px;
      }

      .cls-2, .cls-3, .cls-13, .cls-14, .cls-15, .cls-4, .cls-5, .cls-6, .cls-7, .cls-8, .cls-9, .cls-10, .cls-11, .cls-12 {
        stroke-miterlimit: 10;
      }

      .cls-2, .cls-4 {
        stroke: #000;
        stroke-linecap: round;
      }

      .cls-16, .cls-3, .cls-17, .cls-18, .cls-19, .cls-20, .cls-6, .cls-7, .cls-8, .cls-21, .cls-10, .cls-22, .cls-11, .cls-12 {
        font-family: SunriseRegular, Sunrise;
      }

      .cls-16, .cls-23, .cls-13, .cls-17, .cls-18, .cls-19, .cls-20, .cls-21, .cls-22 {
        fill: #fefbd8;
      }

      .cls-16, .cls-7 {
        font-size: 72px;
      }

      .cls-3, .cls-13, .cls-14, .cls-15, .cls-5, .cls-6, .cls-7, .cls-8, .cls-9, .cls-10, .cls-11, .cls-12 {
        stroke: #0b2632;
      }

      .cls-3, .cls-6, .cls-7, .cls-8, .cls-10, .cls-11, .cls-12 {
        stroke-width: 20px;
      }

      .cls-3, .cls-22 {
        font-size: 120px;
      }

      .cls-24 {
        fill: #fc97b0;
      }

      .cls-25 {
        fill: #7ccded;
      }

      .cls-26 {
        fill: #ced5d8;
      }

      .cls-27 {
        fill: #ce2039;
      }

      .cls-28 {
        fill: #d6d3b0;
      }

      .cls-29 {
        fill: #0b2632;
      }

      .cls-30, .cls-15 {
        fill: #25738e;
      }

      .cls-13, .cls-14, .cls-5 {
        stroke-width: 4px;
      }

      .cls-14 {
        fill: #ea283c;
      }

      .cls-15, .cls-4 {
        stroke-width: 2px;
      }

      .cls-17, .cls-8 {
        font-size: 90px;
      }

      .cls-18, .cls-6 {
        font-size: 130px;
      }

      .cls-19, .cls-11 {
        font-size: 140px;
      }

      .cls-20, .cls-12 {
        font-size: 110px;
      }

      .cls-9 {
        stroke-width: 8px;
      }

      .cls-21, .cls-10 {
        font-size: 100px;
      }
    </style>
  </defs>
  <text class="cls-7" transform="translate(322.66 302.28)"><tspan x="0" y="0">S</tspan></text>
  <text class="cls-8" transform="translate(354.25 294.28)"><tspan x="0" y="0">C</tspan></text>
  <text class="cls-10" transform="translate(391.13 287.28)"><tspan x="0" y="0">R</tspan></text>
  <text class="cls-12" transform="translate(433.48 274.28)"><tspan x="0" y="0">O</tspan></text>
  <text class="cls-3" transform="translate(483.44 255.28)"><tspan x="0" y="0">L</tspan></text>
  <text class="cls-6" transform="translate(527.73 244.28)"><tspan x="0" y="0">L</tspan></text>
  <text class="cls-11" transform="translate(574.21 235.3)"><tspan x="0" y="0">!</tspan></text>
  <polygon class="cls-25" points="178.91 263.79 178.62 262.73 178.91 260.9 179.72 259.35 180.54 260 183.23 264.64 183.23 265.25 178.91 263.79"/>
  <polygon class="cls-25" points="179.32 265.25 183.67 266.23 186.16 271.12 186.16 272.26 185.63 272.26 184.53 272.01 183.23 271.48 182.45 270.71 181.31 269.25 179.85 266.84 179.32 265.25"/>
  <path class="cls-1" d="m342.88,92.9s10.04-17.09,10.04-39.45v-22.35"/>
  <line class="cls-2" x1="288.7" y1="212.04" x2="288.7" y2="11.15"/>
  <line class="cls-2" x1="69.19" y1="219.14" x2="69.19" y2="18.25"/>
  <line class="cls-4" x1="299.9" y1="180.92" x2="299.9" y2="102.46"/>
  <line class="cls-4" x1="321.39" y1="118.69" x2="321.39" y2="40.23"/>
  <line class="cls-4" x1="98.28" y1="79.46" x2="98.28" y2="1"/>
  <line class="cls-4" x1="182.04" y1="201.58" x2="182.04" y2="123.12"/>
  <line class="cls-4" x1="261.72" y1="180.92" x2="261.72" y2="102.46"/>
  <path class="cls-13" d="m357.3,386.75s7.42,38.21,33.51,37.63,37.54-24.29,38.32-34.59c.76-10.02-29.98-27.47-38.82-27.15"/>
  <path class="cls-13" d="m299.49,392.18s-16.16,35.41,5.41,50.1c21.04,14.33,44.67,2.04,51.29-5.89,6.44-7.71-8.44-39.78-15.82-44.65"/>
  <path class="cls-14" d="m206,315.96s65.2,74.17,105.27,67.4c40.07-6.77,67.91-24.2,52.14-30.56-113.8-45.89-103.09-88.49-124.7-53.46-12.64,20.48-32.71,16.63-32.71,16.63Z"/>
  <polygon class="cls-14" points="90.98 279.09 99.21 265.5 192.92 286.33 136.1 286.33 90.98 279.09"/>
  <path class="cls-9" d="m357.3,386.75s7.42,38.21,33.51,37.63,37.54-24.29,38.32-34.59c.76-10.02-29.98-27.47-38.82-27.15"/>
  <path class="cls-27" d="m240.37,301.07s30.93,57.67,99.79,66.43c15.12,1.92,22.85-10.27,22.85-10.27l-13.36-8.91-32.27-17.31-40.24-25.07-16.22-15.48-11.67,6.41-8.87,4.18Z"/>
  <path class="cls-9" d="m299.49,392.18s-16.16,35.41,5.41,50.1c21.04,14.33,44.67,2.04,51.29-5.89,6.44-7.71-8.44-39.78-15.82-44.65"/>
  <path class="cls-26" d="m322.84,402.67s29.4,38.2,8.81,40.62c-20.59,2.42,14.49.58,14.49.58l10.04-7.49-3.91-33.72-4.71-10.93-24.71,10.93Z"/>
  <path class="cls-14" d="m234.29,290.82l85.31-84.57,19.79,15.77-85.58,73.73c-3.32,2.86-8.16,3.09-11.74.57l-7.78-5.49Z"/>
  <path class="cls-26" d="m393.39,373.98s35.98,18.47,22.67,32.49l13.06-18.41-9.89-16.93-13.77-5.04-12.08,7.89Z"/>
  <path class="cls-5" d="m206,315.96s65.2,74.17,105.27,67.4c40.07-6.77,67.91-24.2,52.14-30.56-113.8-45.89-103.09-88.49-124.7-53.46-12.64,20.48-32.71,16.63-32.71,16.63Z"/>
  <path class="cls-14" d="m234.29,290.82l85.31-84.57,19.79,15.77-85.58,73.73c-3.32,2.86-8.16,3.09-11.74.57l-7.78-5.49Z"/>
  <path class="cls-9" d="m357.3,386.75s7.42,38.21,33.51,37.63,38.64-20.54,38.32-34.59c-.44-19.47-33.67-34.34-38.82-27.15"/>
  <path class="cls-9" d="m299.49,392.18s-16.16,35.41,5.41,50.1c21.04,14.33,44.67,2.04,51.29-5.89,6.44-7.71-8.44-39.78-15.82-44.65"/>
  <path class="cls-29" d="m286.95,382.75s24.17,47.71,44.76,22.04c8.1-10.1,17.25-19.85,28.94-18.04,31.93,4.96,64.2-25.5,25.6-35.28-32.19-8.16-46.17,4.55-46.17,4.55,0,0-31.06,25.46-53.13,26.74Z"/>
  <polyline class="cls-27" points="243 293.26 329.58 212.74 319.6 206.25 249.5 274.62 243 293.26"/>
  <path class="cls-5" d="m234.29,290.82l85.31-84.57,19.79,15.77-85.58,73.73c-3.32,2.86-8.16,3.09-11.74.57l-7.78-5.49Z"/>
  <path class="cls-29" d="m108.64,270.39s52.8,31.58,82.55,24.22c29.76-7.36,66.26-30.06,67.21-35.51s-14.45-18.45-32.03-19.15c-17.58-.7-71.01,0-71.01,0l-46.72,9.54v20.9Z"/>
  <path class="cls-24" d="m182.7,253.31s-4.34-1.65-5.12.52.9,31.71,11.1,32.39c10.93.73,13.35-2.35,17.86-7.55,4.01-4.63,14.91-13.44,13.96-27.27-.95-13.83-25.67,5.42-30.52,4.99s-7.28-3.08-7.28-3.08Z"/>
  <path class="cls-13" d="m130.6,290.21s1.07-4.59,7.34-12.13c5.06-6.08,11.72-5.51,17.52,1.74s5.35,19.4,29.25,11.75c6.41-2.05,5.01-16.34,14.16-9.73s26.8,5.44,32.62-12.56,29.48,1.54,11.53,23.97c-2.31,2.89-11.67,18.07-49.49,22.27-46.88,5.2-70.1-14.26-62.91-25.31Z"/>
  <path class="cls-13" d="m270.12,239.27s45.82-120.54-90.85-120.54-85.32,133.97-85.32,133.97c0,0,15.56,32.63,29.33,9.27,8.48-14.37,11.43-14.74,19.9-6.27s21.38,22.85,30.96.74c9.58-22.11,19.9-8.48,23.96-4.42s16.35,28.38,26.23,9.28c11.34-21.94,11.2-5.71,20.95-.43,8.85,4.79,15.7-.35,24.83-21.59Z"/>
  <path class="cls-28" d="m179.27,118.73s67.11,2.78,79.17,54.66c10.16,43.73-3.13,60.77-15.96,83.08l7.14,5.94,10.45-5.08,9.9-17.68,7.54-31.88v-27.35l-12.79-28.85-15.1-15.1-16.66-9-27.25-8.73h-26.43Z"/>
  <path class="cls-28" d="m238.59,266.36s4.35,37.19-39.6,46.11,18.72-2.07,18.72-2.07l21-11.07,10.9-13,1.65-13.05-4.92-6.92-3.06-4.13-5.69.18,1,3.95Z"/>
  <path class="cls-5" d="m270.12,239.27s45.82-120.54-90.85-120.54-85.32,133.97-85.32,133.97c0,0,15.56,32.63,29.33,9.27,8.48-14.37,11.43-14.74,19.9-6.27s21.38,22.85,30.96.74c9.58-22.11,19.9-8.48,23.96-4.42s16.35,28.38,26.23,9.28c11.34-21.94,11.2-5.71,20.95-.43,8.85,4.79,15.7-.35,24.83-21.59Z"/>
  <path class="cls-5" d="m130.6,290.21s1.07-4.59,7.34-12.13c5.06-6.08,11.72-5.51,17.52,1.74s5.35,19.4,29.25,11.75c6.41-2.05,5.01-16.34,14.16-9.73s26.8,5.44,32.62-12.56,29.48,1.54,11.53,23.97c-2.31,2.89-11.67,18.07-49.49,22.27-46.88,5.2-70.1-14.26-62.91-25.31Z"/>
  <path class="cls-29" d="m150.63,196.3c0-14.64-11.87-26.51-26.51-26.51s-26.51,11.87-26.51,26.51,10.59,36.06,25.23,36.06,27.78-21.42,27.78-36.06Z"/>
  <path class="cls-29" d="m181.45,232.36s8.57,1.3-4.11-16.79c-12.68-18.09-10.35-18.88-16.18-17.87-5.83,1.02-14.35,38.92-8.65,39.35,5.7.43,10.61-9.8,12.24-13.6,1.63-3.81,5.82,10.36,16.7,8.92Z"/>
  <path class="cls-29" d="m228.93,192.3c0-14.64-11.87-26.51-26.51-26.51s-26.51,11.87-26.51,26.51,17.84,35.82,32.48,35.82,20.54-21.18,20.54-35.82Z"/>
  <path class="cls-13" d="m327.83,206.58l33.53-24.44s-2.6-4.15.93-8.69,10.31.19,9.42,5.2,7.7.76,12.29,2.52c4.59,1.76,4.06,9.94-4.13,9.73-6.17-.16-40.62,25.97-40.62,25.97l-13.13-8.85,1.71-1.44Z"/>
  <path class="cls-13" d="m357.59,166.87s-19.82-7.64-17.16-15.17,13.13-9.82,24.33,2.22c11.2,12.04,1.53,17.18-7.17,12.95Z"/>
  <path class="cls-13" d="m413.24,161.41l14.77-16.01s11.88-12.92,20.34,1.11c8.46,14.03-10.86,26.86-16.9,19.62,0,0-13.53,7.55-18.22-4.72Z"/>
  <path class="cls-13" d="m396.6,153.22l12.57-22.69s10.09-18.3,23.84-4.46c13.75,13.84-4.98,34.13-14.01,27.46,0,0-13.52,12.54-22.4-.31Z"/>
  <path class="cls-13" d="m376.62,157.2l1.47-25.89s1.15-20.87,19.54-14.37c18.39,6.5,10.33,32.91-.7,30.82,0,0-6.73,17.17-20.32,9.44Z"/>
  <path class="cls-13" d="m376.76,167.94s4.35-1.71,9.4-3.7,4.38-4.09,10.49-.26,10.17,2.33,10.41,3.94-1.21,6.84,2.7,7.66-19.44,7.95-33-7.65Z"/>
  <path class="cls-13" d="m95.3,266.35l-28.15-5.83s.45-3.36-3.07-5.22-6.45,3.07-4.46,5.98-4.64,2.68-7.03,5.11.28,7.43,5.39,4.96c3.85-1.86,33.05,4.77,33.05,4.77l5.75-9.34-1.49-.42Z"/>
  <path class="cls-13" d="m65.16,249.82s10.32-10.49,6.49-14.48-11.09-2.44-14.71,8.36c-3.62,10.8,3.95,11.27,8.23,6.12Z"/>
  <path class="cls-13" d="m28.49,262.29l-13.9-5.87s-11.19-4.75-12.51,6.52c-1.32,11.27,14.54,13.84,16.27,7.54,0,0,10.69.89,10.14-8.19Z"/>
  <path class="cls-13" d="m36.65,252.36l-14.42-10.71s-11.6-8.66-16.31,4.01c-4.71,12.66,12.91,20.11,16.69,13.31,0,0,12.11,4.05,14.04-6.61Z"/>
  <path class="cls-13" d="m50.4,249.16l-8.34-15.91s-6.69-12.83-16.44-3.47c-9.74,9.36,2.9,23.72,9.26,19.24,0,0,9.16,8.91,15.52.14Z"/>
  <path class="cls-13" d="m53.38,255.98s-3.24.16-6.99.36-3.93-1.33-6.69,2.84c-2.76,4.17-5.75,4.38-5.44,5.46s2.72,3.97.49,5.6,14.54-.55,18.63-14.26Z"/>
  <path class="cls-29" d="m188.63,40.4s4.52-8.29,10.37-8.92c22.09-2.36,27.77,6.84,27.77,6.84l-9.97,8.4-28.17-6.32Z"/>
  <ellipse class="cls-30" cx="210.32" cy="94.54" rx="17.5" ry="44.71" transform="translate(59.6 269.05) rotate(-73.39)"/>
  <ellipse class="cls-29" cx="210.32" cy="89.65" rx="17.5" ry="44.71" transform="translate(64.28 265.56) rotate(-73.39)"/>
  <path class="cls-29" d="m253.16,107.32s13.15-56.44-10.04-64.17c-23.19-7.73-35.71-8.44-35.71-8.44l-11.95,2.65-5,32.41,62.71,37.56Z"/>
  <path class="cls-23" d="m253.16,102.43s1.99-19.16-37.84-29.55c-39.83-10.4-19.86-35.52-19.86-35.52,0,0,5.09-7.46,18.54-3.38,13.45,4.09,18.18,6.52,13.67,33.61l-1.02,6.23s32.67,11.71,26.52,28.61Z"/>
  <path class="cls-15" d="m210.32,71.51s-34.93-4.65-42.85,10.25c0,0-17.57-38.61,0-40.94,13.57-1.8,39.1-6.45,42.85,30.69Z"/>
  <path class="cls-15" d="m236.02,40.4c0,1.05-1.27,1.89-2.84,1.89s-2.84-.85-2.84-1.89c0-1.05,1.27-3.98,2.84-3.98,3.93,0,2.84,2.93,2.84,3.98Z"/>
  <text class="cls-16" transform="translate(316.7 302.21)"><tspan x="0" y="0">S</tspan></text>
  <text class="cls-17" transform="translate(345.28 294.21)"><tspan x="0" y="0">C</tspan></text>
  <text class="cls-21" transform="translate(382.15 287.21)"><tspan x="0" y="0">R</tspan></text>
  <text class="cls-20" transform="translate(424.5 274.21)"><tspan x="0" y="0">O</tspan></text>
  <text class="cls-22" transform="translate(474.46 255.21)"><tspan x="0" y="0">L</tspan></text>
  <text class="cls-18" transform="translate(518.75 244.21)"><tspan x="0" y="0">L</tspan></text>
  <text class="cls-19" transform="translate(565.24 235.23)"><tspan x="0" y="0">!</tspan></text>
</svg>