<?xml version="1.0" encoding="utf-8"?>
<!-- Generator: Adobe Illustrator 26.5.0, SVG Export Plug-In . SVG Version: 6.00 Build 0)  -->
<svg version="1.1" id="Layer_1" xmlns="http://www.w3.org/2000/svg" xmlns:xlink="http://www.w3.org/1999/xlink" x="0px" y="0px"
	 viewBox="0 0 530.92 380.54" style="enable-background:new 0 0 530.92 380.54;" xml:space="preserve">
<style type="text/css">
	.st0{fill:#0B2632;}
</style>
<g>
	<path class="st0" d="M265.89,0c75.73,0,151.46-0.01,227.2,0.01c18.64,0,33.77,11.97,37.88,29.86
		c5.28,22.96-12.39,45.69-35.93,46.22c-0.79,0.02-1.58,0.02-2.38,0.02c-151.27,0-302.53,0-453.8,0C20.27,76.1,5,64.51,0.78,47.25
		c-5.88-24.03,12-47.16,36.73-47.21C84.24-0.07,130.96,0,177.69,0C207.09,0,236.49,0,265.89,0z"/>
	<path class="st0" d="M265.99,152.22c75.73,0,151.46-0.01,227.2,0.01c18.49,0,33.56,11.91,37.73,29.67
		c5.42,23.08-12.28,45.92-35.97,46.42c-0.4,0.01-0.79,0.02-1.19,0.02c-151.96,0-303.92,0.01-455.88-0.01
		c-16.78,0-31.38-10.67-36.41-26.37c-7.94-24.77,10.42-49.7,36.74-49.71C114.13,152.19,190.06,152.22,265.99,152.22z"/>
	<path class="st0" d="M265.89,304.43c75.73,0,151.46-0.01,227.2,0.01c18.64,0,33.77,11.97,37.88,29.86
		c5.28,22.96-12.39,45.69-35.93,46.22c-0.79,0.02-1.58,0.02-2.38,0.02c-151.27,0-302.53,0-453.8,0c-18.6,0-33.86-11.59-38.08-28.86
		c-5.88-24.03,12-47.16,36.73-47.21c46.53-0.11,93.06-0.03,139.58-0.03C206.69,304.43,236.29,304.43,265.89,304.43z"/>
</g>
</svg>
