<?xml version="1.0" encoding="utf-8"?>
<!-- Generator: Adobe Illustrator 26.5.0, SVG Export Plug-In . SVG Version: 6.00 Build 0)  -->
<svg version="1.1" id="Layer_1" xmlns="http://www.w3.org/2000/svg" xmlns:xlink="http://www.w3.org/1999/xlink" x="0px" y="0px"
	 viewBox="0 0 530.92 398.65" style="enable-background:new 0 0 530.92 398.65;" xml:space="preserve">
<style type="text/css">
	.st0{fill:#0B2632;}
</style>
<g>
	<path class="st0" d="M238.68,172.3c53.55-53.55,107.09-107.1,160.66-160.64c13.18-13.18,32.34-15.41,47.9-5.67
		c19.97,12.5,23.55,41.07,7.28,58.09c-0.55,0.57-1.11,1.13-1.67,1.69C345.89,172.73,238.93,279.69,131.96,386.65
		c-13.15,13.15-32.14,15.74-47.33,6.52c-21.14-12.83-24.86-41.83-7.42-59.36c32.97-33.11,66.06-66.1,99.1-99.14
		C197.1,213.88,217.89,193.09,238.68,172.3z"/>
	<path class="st0" d="M292.46,172.53c53.55,53.55,107.11,107.09,160.65,160.66c13.18,13.18,15.41,32.34,5.67,47.9
		c-12.5,19.97-41.07,23.55-58.09,7.28c-0.57-0.55-1.13-1.11-1.69-1.67C292.04,279.74,185.08,172.78,78.12,65.81
		C64.97,52.66,62.37,33.67,71.6,18.48c12.83-21.14,41.83-24.86,59.36-7.42c32.97,32.83,65.82,65.78,98.72,98.68
		C250.6,130.67,271.53,151.6,292.46,172.53z"/>
</g>
</svg>
